Coordinates
version=1
nRows=20
nColumns=34
inDegrees=yes

Units are S.I. units (second, meters, Newtons, ...)
If the header above contains a line with 'inDegrees', this indicates whether rotational values are in degrees (yes) or radians (no).

endheader
time	pelvis_tilt	pelvis_list	pelvis_rotation	pelvis_tx	pelvis_ty	pelvis_tz	hip_flexion_r	hip_adduction_r	hip_rotation_r	knee_angle_r	ankle_angle_r	subtalar_angle_r	mtp_angle_r	hip_flexion_l	hip_adduction_l	hip_rotation_l	knee_angle_l	ankle_angle_l	subtalar_angle_l	mtp_angle_l	lumbar_extension	lumbar_bending	lumbar_rotation	arm_flex_r	arm_add_r	arm_rot_r	elbow_flex_r	pro_sup_r	arm_flex_l	arm_add_l	arm_rot_l	elbow_flex_l	pro_sup_l
      2.50000000	      3.04407003	     -1.88936793	    -61.25119359	      2.29242034	      0.95909074	      6.72347005	     39.73453760	      3.66604782	     -7.80009520	     21.93191584	     -0.52954982	      6.43146033	      0.00000000	     38.08365088	     15.11246506	     -8.22232724	     16.43461754	    -17.33190569	     -8.45025946	      0.00000000	    -23.96061245	     -6.06763732	     18.65310720	      7.95322492	      0.63399498	     28.94067592	     81.22049693	    119.74817918	     -3.61769486	      3.32596662	     30.99984959	     95.65547217	    119.74817918
      2.51666670	      2.61809885	     -2.45200046	    -61.61496267	      2.28870872	      0.96106994	      6.72625194	     39.13739095	      4.60324744	     -8.36808897	     21.09011887	     -0.68206455	      7.65842770	      0.00000000	     38.22869462	     14.09794215	     -7.53380872	     17.51635793	    -17.07832318	     -9.22004775	      0.00000000	    -24.02774690	     -6.55433768	     18.02017122	      8.96128827	      1.35355129	     28.12725776	     81.13018815	    119.74817918	     -3.32084040	      1.43682364	     31.28182513	     97.29307723	    119.74817918
      2.53333330	      1.59191237	     -3.84917485	    -61.00073922	      2.28640901	      0.96386258	      6.72784627	     38.06811280	      5.64087393	     -9.77659136	     20.47164036	     -0.01638218	     10.47369635	      0.00000000	     38.08362499	     12.86752850	     -5.54587429	     19.40058964	    -17.01016194	    -10.25212189	      0.00000000	    -24.66528135	     -5.58881440	     16.64744055	     10.00580103	      2.69253473	     27.24349382	     81.70563818	    119.74817918	     -3.32324899	      0.15982118	     31.56970169	     97.85874145	    119.74817918
      2.55000000	      0.85583480	     -4.91780434	    -60.58811167	      2.28445429	      0.96704152	      6.72880913	     37.53398263	      6.46290387	     -9.91371420	     20.79460366	      1.08395490	     12.61568701	      0.00000000	     38.54648954	     11.88957485	     -4.53866706	     21.49181749	    -18.15671411	    -11.64404299	      0.00000000	    -25.18585028	     -4.98233311	     15.05172359	     10.62953074	      4.36448323	     27.01283998	     82.17830652	    119.74817918	     -3.65489795	     -1.13007977	     31.97633692	     97.77750325	    119.74817918
      2.56666670	      0.48775841	     -5.88808674	    -60.89297168	      2.28406902	      0.97021865	      6.73097579	     36.93384781	      7.49663538	     -9.51845956	     21.53184606	      2.54868370	     13.17679774	      0.00000000	     38.76852734	     10.87126581	     -4.54100779	     23.46568261	    -18.69261926	    -12.65774144	      0.00000000	    -25.53344754	     -4.80615641	     14.16753756	     10.65380744	      5.53249299	     27.21707538	     82.56879949	    119.74817918	     -4.43049613	     -2.40522983	     32.37457956	     97.34189213	    119.74817918
      2.58333330	     -0.00296231	     -6.87881273	    -61.06598016	      2.28524639	      0.97278302	      6.73304802	     36.39371821	      8.44932175	     -9.34855722	     22.62825644	      4.28494797	     14.28554087	      0.00000000	     38.75362033	     10.03665736	     -4.21230702	     25.06354241	    -18.98144052	    -14.08546123	      0.00000000	    -25.77315958	     -4.12889780	     13.52723742	     10.74251215	      6.03232869	     27.94961333	     83.16736010	    119.74817918	     -5.26486364	     -3.17618326	     32.64315645	     96.53672115	    119.74817918
      2.60000000	     -0.33469021	     -7.67809954	    -60.77130062	      2.28706078	      0.97397173	      6.73411523	     36.18691976	      8.97872597	     -8.05485808	     23.84812392	      6.37121114	     14.84868217	      0.00000000	     38.94959603	      9.53883185	     -4.41552919	     26.78262625	    -19.12548485	    -14.70133720	      0.00000000	    -26.09365269	     -3.38212104	     12.62484382	     11.18712098	      6.38858829	     28.55412581	     83.34171152	    119.74817918	     -5.13681482	     -3.70065326	     33.07044500	     95.42415875	    119.74817918
      2.61666670	     -0.70912232	     -8.30071672	    -60.76542549	      2.28946415	      0.97436496	      6.73375875	     36.00327446	      9.51515405	     -7.15773873	     24.49600218	      8.62534820	     15.08963442	      0.00000000	     39.29416670	      8.99937170	     -4.99044452	     28.14441995	    -19.51065756	    -15.54119198	      0.00000000	    -26.39504869	     -2.46210953	     12.19916341	     11.81014874	      6.24811305	     30.03056309	     83.30131773	    119.74817918	     -4.48262097	     -4.03826243	     33.50334125	     94.15990472	    119.73701969
      2.63333330	     -1.10222488	     -9.24691584	    -60.80030609	      2.29323808	      0.97589851	      6.73320767	     35.52833560	     10.31024869	     -5.49313318	     24.92945077	      9.12154246	     15.02426728	      0.00000000	     39.29454098	      8.38968204	     -5.39359334	     29.44399656	    -20.55071394	    -16.99024657	      0.00000000	    -26.74703199	     -1.31562998	     11.74843501	     11.88428462	      5.96413613	     30.86802466	     82.92174180	    119.74817918	     -4.82307973	     -3.97912242	     33.48068496	     93.25915877	    119.63976196
      2.65000000	     -1.59677905	    -10.45229557	    -60.73817868	      2.29813462	      0.97788870	      6.73292223	     35.07371771	     11.24713056	     -3.64025145	     25.64380164	      8.13666918	     13.98031531	      0.00000000	     39.06152918	      7.81149575	     -5.36820738	     30.82120326	    -21.89152071	    -19.08856001	      0.00000000	    -27.20484208	      0.07439296	     11.68341016	     11.45135820	      5.54800518	     30.36017419	     82.13572897	    119.74817918	     -5.13720435	     -3.46857362	     33.21951423	     92.64730836	    119.41050765
      2.66666670	     -2.26775008	    -11.31310102	    -60.82849243	      2.30300652	      0.97893512	      6.73210669	     35.24263358	     11.87669713	     -3.68046792	     26.95000290	      6.71420071	     12.68446467	      0.00000000	     38.75820386	      7.17013215	     -6.20003865	     31.25252917	    -22.83472519	    -21.28581501	      0.00000000	    -27.58752848	      1.49745739	     12.03118657	     11.55086982	      4.51009919	     30.13659107	     80.91459283	    119.74817918	     -5.11226718	     -2.60320674	     33.69988622	     91.11655983	    119.21965741
      2.68333330	     -2.98585668	    -12.01859973	    -60.35565663	      2.30801092	      0.97984485	      6.73215389	     35.63574111	     12.40382869	     -3.08487519	     27.82773943	      3.88342153	      9.63314385	      0.00000000	     38.12563868	      6.95405715	     -6.05397538	     31.03478849	    -23.46424059	    -23.02890687	      0.00000000	    -27.76713473	      2.96114986	     11.83553737	     11.41415807	      3.58160658	     30.28731873	     79.84839860	    119.74817918	     -4.75906711	     -1.97277751	     34.46029362	     89.81542046	    118.87973923
      2.70000000	     -3.52752786	    -12.65701436	    -60.38061741	      2.31284387	      0.98130889	      6.73372619	     35.37995230	     13.00396516	     -1.87282988	     27.54721854	      0.22459892	      7.64731964	      0.00000000	     37.32846765	      6.65502502	     -5.89206462	     30.77250994	    -23.67292926	    -24.58272912	      0.00000000	    -27.65408161	      4.04920932	     12.05382678	     10.47132677	      2.58532010	     30.19317566	     79.37461959	    119.74817918	     -4.79987024	     -1.33629825	     34.48748735	     88.85846301	    118.52046661
      2.71666670	     -4.08287749	    -13.28021019	    -60.08304084	      2.31677187	      0.98215031	      6.73469824	     35.29201906	     13.50133507	     -1.05922815	     27.03167057	     -4.10335485	      5.38510061	      0.00000000	     36.42083635	      6.51871163	     -5.51740392	     30.09413131	    -24.02382718	    -26.06724811	      0.00000000	    -27.62849462	      5.15922557	     12.11298410	      9.78984619	      1.85707042	     29.86662876	     79.46236415	    119.74817918	     -4.42245801	     -0.92329210	     34.35333762	     88.36577411	    118.21846387
      2.73333330	     -4.88659961	    -13.46971326	    -59.69377488	      2.31903769	      0.98267738	      6.73582166	     35.00833314	     13.74882383	     -1.69324064	     25.04120529	     -9.23252258	      4.54850990	      0.00000000	     35.42118353	      6.11027407	     -6.00332918	     28.20362553	    -24.24897681	    -26.76790232	      0.00000000	    -27.27333409	      6.22504129	     11.99291527	      9.12708417	      1.39086942	     29.77600014	     79.87406895	    119.74817918	     -3.95040689	     -1.00832672	     34.03415199	     88.56563732	    118.05634954
      2.75000000	     -5.87701058	    -13.89252151	    -59.96091816	      2.32083753	      0.98340039	      6.73853618	     34.05551526	     14.69120056	     -1.60910077	     22.60255401	    -12.48113476	      3.75394130	      0.00000000	     34.89176988	      4.83527263	     -6.47426611	     27.59135719	    -22.85554592	    -27.38252774	      0.00000000	    -26.84025329	      7.46297029	     12.99797658	      7.88965627	      0.86891505	     29.32694499	     80.62374808	    119.74817918	     -3.46035309	     -0.79237576	     33.52574889	     88.43511953	    117.88045060
      2.76666670	     -6.95315119	    -13.61667818	    -59.60870337	      2.32308693	      0.98231506	      6.74056346	     34.35699821	     14.95997671	     -2.45194158	     21.23926958	    -15.09778517	      4.71872002	      0.00000000	     35.11317486	      4.41860791	     -5.47142592	     27.02580244	    -19.66441902	    -22.55970539	      0.00000000	    -25.66830091	      8.67756183	     12.98050687	      7.21260729	      0.41877877	     29.25038035	     81.14730633	    119.74817918	     -3.02767377	     -0.54542518	     33.06386406	     88.72327981	    117.94096216
      2.78333330	     -7.22353875	    -13.43052798	    -59.32716002	      2.32437110	      0.98203229	      6.74196849	     34.51093516	     14.85904967	     -3.01773697	     20.95388810	    -15.96218060	      4.44771883	      0.00000000	     34.87717802	      4.25324516	     -5.99736217	     26.40737775	    -16.06400640	    -17.20330355	      0.00000000	    -25.43539616	      8.90077951	     13.85043005	      6.33797325	     -0.00780016	     27.97053837	     82.13096557	    119.74817918	     -1.97969078	     -0.02403822	     32.81690506	     89.31257807	    118.09295762
      2.80000000	     -7.93476159	    -13.06663674	    -59.62953502	      2.32482597	      0.98036830	      6.74284902	     35.35889623	     15.05211257	     -4.30856556	     21.13816456	    -15.77369702	      5.40835959	      0.00000000	     35.02778914	      3.22092465	     -8.06291218	     25.46535052	    -13.27010691	    -12.78484588	      0.00000000	    -25.04179095	      9.21168798	     14.63428924	      6.00094187	     -0.73516159	     27.50637462	     83.09466577	    119.74817918	     -1.32023425	      0.65940861	     32.11028840	     90.23982169	    118.30096417
      2.81666670	     -8.11766507	    -12.96454546	    -59.47041592	      2.32533006	      0.97943682	      6.74486455	     36.00278979	     14.78265313	     -5.60461976	     22.04863476	    -15.43667708	      6.31395879	      0.00000000	     34.70897617	      3.02584550	     -8.12633486	     24.70882886	    -10.49673969	    -12.30246086	      0.00000000	    -24.81092689	      9.17201141	     15.01334585	      5.46723239	     -0.70939967	     26.97147141	     83.26815445	    119.74817918	     -1.04617745	      0.77770649	     31.49081415	     92.03101376	    118.41206057
